<svg width="1053" height="203" viewBox="0 0 1053 203" fill="none" xmlns="http://www.w3.org/2000/svg">
<g filter="url(#filter0_d_26_77)">
<path d="M4 101.311C4 92.0385 11.5165 84.522 20.7886 84.522H1053V118.099H20.7885C11.5164 118.099 4 110.583 4 101.311Z" fill="#819595"/>
</g>
<rect x="69.9971" width="92.627" height="202.621" rx="3" fill="#FFD93D"/>
<rect x="73.4707" y="3.47363" width="85.6799" height="195.674" rx="3" fill="black"/>
<rect x="344.404" y="49.7871" width="392.507" height="100.732" rx="3" fill="#006D00"/>
<path d="M430.819 109.341C429.031 109.341 427.493 108.962 426.206 108.205C424.925 107.439 423.94 106.379 423.251 105.023C422.569 103.667 422.228 102.106 422.228 100.341C422.228 98.553 422.573 96.9848 423.262 95.6364C423.959 94.2803 424.948 93.2235 426.228 92.4659C427.509 91.7008 429.031 91.3182 430.796 91.3182C432.319 91.3182 433.652 91.5947 434.796 92.1477C435.94 92.7008 436.846 93.4773 437.512 94.4773C438.179 95.4773 438.546 96.6515 438.615 98H434.046C433.918 97.1288 433.577 96.428 433.024 95.8977C432.478 95.3598 431.762 95.0909 430.876 95.0909C430.126 95.0909 429.471 95.2955 428.91 95.7045C428.357 96.1061 427.925 96.6932 427.615 97.4659C427.304 98.2386 427.149 99.1742 427.149 100.273C427.149 101.386 427.3 102.333 427.603 103.114C427.914 103.894 428.349 104.489 428.91 104.898C429.471 105.307 430.126 105.511 430.876 105.511C431.429 105.511 431.925 105.398 432.365 105.17C432.812 104.943 433.179 104.614 433.467 104.182C433.762 103.742 433.956 103.216 434.046 102.602H438.615C438.539 103.936 438.175 105.11 437.524 106.125C436.88 107.133 435.99 107.92 434.853 108.489C433.717 109.057 432.372 109.341 430.819 109.341ZM449.6 109.341C447.835 109.341 446.309 108.966 445.021 108.216C443.741 107.458 442.752 106.405 442.055 105.057C441.358 103.701 441.009 102.129 441.009 100.341C441.009 98.5379 441.358 96.9621 442.055 95.6136C442.752 94.2576 443.741 93.2045 445.021 92.4545C446.309 91.697 447.835 91.3182 449.6 91.3182C451.366 91.3182 452.888 91.697 454.169 92.4545C455.456 93.2045 456.449 94.2576 457.146 95.6136C457.843 96.9621 458.191 98.5379 458.191 100.341C458.191 102.129 457.843 103.701 457.146 105.057C456.449 106.405 455.456 107.458 454.169 108.216C452.888 108.966 451.366 109.341 449.6 109.341ZM449.623 105.591C450.426 105.591 451.097 105.364 451.634 104.909C452.172 104.447 452.578 103.818 452.85 103.023C453.131 102.227 453.271 101.322 453.271 100.307C453.271 99.2917 453.131 98.3864 452.85 97.5909C452.578 96.7955 452.172 96.1667 451.634 95.7045C451.097 95.2424 450.426 95.0114 449.623 95.0114C448.813 95.0114 448.131 95.2424 447.578 95.7045C447.032 96.1667 446.619 96.7955 446.339 97.5909C446.066 98.3864 445.93 99.2917 445.93 100.307C445.93 101.322 446.066 102.227 446.339 103.023C446.619 103.818 447.032 104.447 447.578 104.909C448.131 105.364 448.813 105.591 449.623 105.591ZM466.18 98.9091V109H461.339V91.5455H465.953V94.625H466.157C466.544 93.6098 467.191 92.8068 468.1 92.2159C469.009 91.6174 470.112 91.3182 471.407 91.3182C472.619 91.3182 473.676 91.5833 474.578 92.1136C475.479 92.6439 476.18 93.4015 476.68 94.3864C477.18 95.3636 477.43 96.5303 477.43 97.8864V109H472.589V98.75C472.597 97.6818 472.324 96.8485 471.771 96.25C471.218 95.6439 470.456 95.3409 469.487 95.3409C468.835 95.3409 468.259 95.4811 467.759 95.7614C467.267 96.0417 466.881 96.4508 466.6 96.9886C466.328 97.5189 466.188 98.1591 466.18 98.9091ZM495.768 96.5227L491.336 96.7955C491.26 96.4167 491.098 96.0758 490.848 95.7727C490.598 95.4621 490.268 95.2159 489.859 95.0341C489.457 94.8447 488.976 94.75 488.416 94.75C487.666 94.75 487.033 94.9091 486.518 95.2273C486.003 95.5379 485.745 95.9545 485.745 96.4773C485.745 96.8939 485.912 97.2462 486.245 97.5341C486.579 97.822 487.151 98.053 487.961 98.2273L491.12 98.8636C492.817 99.2121 494.082 99.7727 494.916 100.545C495.749 101.318 496.166 102.333 496.166 103.591C496.166 104.735 495.829 105.739 495.154 106.602C494.488 107.466 493.571 108.14 492.404 108.625C491.245 109.102 489.908 109.341 488.393 109.341C486.082 109.341 484.242 108.86 482.87 107.898C481.507 106.928 480.707 105.61 480.473 103.943L485.234 103.693C485.378 104.398 485.726 104.936 486.279 105.307C486.832 105.67 487.541 105.852 488.404 105.852C489.253 105.852 489.935 105.689 490.45 105.364C490.973 105.03 491.238 104.602 491.245 104.08C491.238 103.64 491.052 103.28 490.688 103C490.325 102.712 489.764 102.492 489.007 102.341L485.984 101.739C484.279 101.398 483.01 100.807 482.177 99.9659C481.351 99.125 480.938 98.053 480.938 96.75C480.938 95.6288 481.242 94.6629 481.848 93.8523C482.461 93.0417 483.321 92.4167 484.427 91.9773C485.541 91.5379 486.844 91.3182 488.336 91.3182C490.541 91.3182 492.276 91.7841 493.541 92.7159C494.813 93.6477 495.556 94.9167 495.768 96.5227ZM507.1 109.341C505.335 109.341 503.809 108.966 502.521 108.216C501.241 107.458 500.252 106.405 499.555 105.057C498.858 103.701 498.509 102.129 498.509 100.341C498.509 98.5379 498.858 96.9621 499.555 95.6136C500.252 94.2576 501.241 93.2045 502.521 92.4545C503.809 91.697 505.335 91.3182 507.1 91.3182C508.866 91.3182 510.388 91.697 511.669 92.4545C512.956 93.2045 513.949 94.2576 514.646 95.6136C515.343 96.9621 515.691 98.5379 515.691 100.341C515.691 102.129 515.343 103.701 514.646 105.057C513.949 106.405 512.956 107.458 511.669 108.216C510.388 108.966 508.866 109.341 507.1 109.341ZM507.123 105.591C507.926 105.591 508.597 105.364 509.134 104.909C509.672 104.447 510.078 103.818 510.35 103.023C510.631 102.227 510.771 101.322 510.771 100.307C510.771 99.2917 510.631 98.3864 510.35 97.5909C510.078 96.7955 509.672 96.1667 509.134 95.7045C508.597 95.2424 507.926 95.0114 507.123 95.0114C506.313 95.0114 505.631 95.2424 505.078 95.7045C504.532 96.1667 504.119 96.7955 503.839 97.5909C503.566 98.3864 503.43 99.2917 503.43 100.307C503.43 101.322 503.566 102.227 503.839 103.023C504.119 103.818 504.532 104.447 505.078 104.909C505.631 105.364 506.313 105.591 507.123 105.591ZM523.68 85.7273V109H518.839V85.7273H523.68ZM535.512 109.341C533.717 109.341 532.171 108.977 530.876 108.25C529.588 107.515 528.596 106.477 527.899 105.136C527.202 103.788 526.853 102.193 526.853 100.352C526.853 98.5568 527.202 96.9811 527.899 95.625C528.596 94.2689 529.577 93.2121 530.842 92.4545C532.115 91.697 533.607 91.3182 535.319 91.3182C536.471 91.3182 537.543 91.5038 538.535 91.875C539.535 92.2386 540.406 92.7879 541.149 93.5227C541.899 94.2576 542.482 95.1818 542.899 96.2955C543.315 97.4015 543.524 98.697 543.524 100.182V101.511H528.785V98.5114H538.967C538.967 97.8144 538.815 97.197 538.512 96.6591C538.209 96.1212 537.789 95.7008 537.251 95.3977C536.721 95.0871 536.103 94.9318 535.399 94.9318C534.664 94.9318 534.012 95.1023 533.444 95.4432C532.884 95.7765 532.444 96.2273 532.126 96.7955C531.808 97.3561 531.645 97.9811 531.637 98.6705V101.523C531.637 102.386 531.796 103.133 532.115 103.761C532.44 104.39 532.899 104.875 533.49 105.216C534.081 105.557 534.781 105.727 535.592 105.727C536.13 105.727 536.622 105.652 537.069 105.5C537.516 105.348 537.899 105.121 538.217 104.818C538.535 104.515 538.777 104.144 538.944 103.705L543.421 104C543.194 105.076 542.728 106.015 542.024 106.818C541.327 107.614 540.425 108.235 539.319 108.682C538.221 109.121 536.952 109.341 535.512 109.341ZM549.512 109.295C548.762 109.295 548.118 109.03 547.581 108.5C547.05 107.962 546.785 107.318 546.785 106.568C546.785 105.826 547.05 105.189 547.581 104.659C548.118 104.129 548.762 103.864 549.512 103.864C550.24 103.864 550.876 104.129 551.421 104.659C551.967 105.189 552.24 105.826 552.24 106.568C552.24 107.068 552.111 107.527 551.853 107.943C551.603 108.352 551.274 108.682 550.865 108.932C550.456 109.174 550.005 109.295 549.512 109.295ZM561.055 85.7273V109H556.214V85.7273H561.055ZM572.819 109.341C571.054 109.341 569.527 108.966 568.24 108.216C566.959 107.458 565.971 106.405 565.274 105.057C564.577 103.701 564.228 102.129 564.228 100.341C564.228 98.5379 564.577 96.9621 565.274 95.6136C565.971 94.2576 566.959 93.2045 568.24 92.4545C569.527 91.697 571.054 91.3182 572.819 91.3182C574.584 91.3182 576.107 91.697 577.387 92.4545C578.675 93.2045 579.668 94.2576 580.365 95.6136C581.062 96.9621 581.41 98.5379 581.41 100.341C581.41 102.129 581.062 103.701 580.365 105.057C579.668 106.405 578.675 107.458 577.387 108.216C576.107 108.966 574.584 109.341 572.819 109.341ZM572.842 105.591C573.645 105.591 574.315 105.364 574.853 104.909C575.391 104.447 575.796 103.818 576.069 103.023C576.349 102.227 576.49 101.322 576.49 100.307C576.49 99.2917 576.349 98.3864 576.069 97.5909C575.796 96.7955 575.391 96.1667 574.853 95.7045C574.315 95.2424 573.645 95.0114 572.842 95.0114C572.031 95.0114 571.349 95.2424 570.796 95.7045C570.251 96.1667 569.838 96.7955 569.558 97.5909C569.285 98.3864 569.149 99.2917 569.149 100.307C569.149 101.322 569.285 102.227 569.558 103.023C569.838 103.818 570.251 104.447 570.796 104.909C571.349 105.364 572.031 105.591 572.842 105.591ZM592.421 115.909C590.853 115.909 589.509 115.693 588.387 115.261C587.274 114.837 586.387 114.258 585.728 113.523C585.069 112.788 584.641 111.962 584.444 111.045L588.921 110.443C589.058 110.792 589.274 111.117 589.569 111.42C589.865 111.723 590.255 111.966 590.74 112.148C591.232 112.337 591.831 112.432 592.535 112.432C593.588 112.432 594.456 112.174 595.137 111.659C595.827 111.152 596.171 110.299 596.171 109.102V105.909H595.967C595.755 106.394 595.437 106.852 595.012 107.284C594.588 107.716 594.043 108.068 593.376 108.341C592.709 108.614 591.914 108.75 590.99 108.75C589.679 108.75 588.486 108.447 587.41 107.841C586.342 107.227 585.49 106.292 584.853 105.034C584.224 103.769 583.91 102.17 583.91 100.239C583.91 98.2614 584.232 96.6098 584.876 95.2841C585.52 93.9583 586.376 92.9659 587.444 92.3068C588.52 91.6477 589.698 91.3182 590.978 91.3182C591.956 91.3182 592.774 91.4848 593.433 91.8182C594.092 92.1439 594.622 92.553 595.024 93.0455C595.433 93.5303 595.747 94.0076 595.967 94.4773H596.149V91.5455H600.956V109.17C600.956 110.655 600.592 111.898 599.865 112.898C599.137 113.898 598.13 114.648 596.842 115.148C595.562 115.655 594.088 115.909 592.421 115.909ZM592.524 105.114C593.304 105.114 593.963 104.92 594.501 104.534C595.046 104.14 595.463 103.58 595.751 102.852C596.046 102.117 596.194 101.239 596.194 100.216C596.194 99.1932 596.05 98.3068 595.762 97.5568C595.474 96.7992 595.058 96.2121 594.512 95.7955C593.967 95.3788 593.304 95.1705 592.524 95.1705C591.728 95.1705 591.058 95.3864 590.512 95.8182C589.967 96.2424 589.554 96.8333 589.274 97.5909C588.993 98.3485 588.853 99.2235 588.853 100.216C588.853 101.223 588.993 102.095 589.274 102.83C589.562 103.557 589.974 104.121 590.512 104.523C591.058 104.917 591.728 105.114 592.524 105.114ZM616.316 109H611.044L619.078 85.7273H625.419L633.441 109H628.169L622.339 91.0455H622.157L616.316 109ZM615.987 99.8523H628.441V103.693H615.987V99.8523ZM650.237 91.5455L644.134 109H638.68L632.578 91.5455H637.691L641.316 104.034H641.498L645.112 91.5455H650.237ZM660.106 109.341C658.311 109.341 656.765 108.977 655.47 108.25C654.182 107.515 653.189 106.477 652.492 105.136C651.795 103.788 651.447 102.193 651.447 100.352C651.447 98.5568 651.795 96.9811 652.492 95.625C653.189 94.2689 654.17 93.2121 655.436 92.4545C656.708 91.697 658.201 91.3182 659.913 91.3182C661.064 91.3182 662.136 91.5038 663.129 91.875C664.129 92.2386 665 92.7879 665.742 93.5227C666.492 94.2576 667.076 95.1818 667.492 96.2955C667.909 97.4015 668.117 98.697 668.117 100.182V101.511H653.379V98.5114H663.561C663.561 97.8144 663.409 97.197 663.106 96.6591C662.803 96.1212 662.383 95.7008 661.845 95.3977C661.314 95.0871 660.697 94.9318 659.992 94.9318C659.258 94.9318 658.606 95.1023 658.038 95.4432C657.477 95.7765 657.038 96.2273 656.72 96.7955C656.402 97.3561 656.239 97.9811 656.231 98.6705V101.523C656.231 102.386 656.39 103.133 656.708 103.761C657.034 104.39 657.492 104.875 658.083 105.216C658.674 105.557 659.375 105.727 660.186 105.727C660.724 105.727 661.216 105.652 661.663 105.5C662.11 105.348 662.492 105.121 662.811 104.818C663.129 104.515 663.371 104.144 663.538 103.705L668.015 104C667.788 105.076 667.322 106.015 666.617 106.818C665.92 107.614 665.019 108.235 663.913 108.682C662.814 109.121 661.545 109.341 660.106 109.341Z" fill="#F3F4F6"/>
<circle cx="116.31" cy="41.6823" r="24.3146" fill="#FB2D00"/>
<circle cx="116.31" cy="101.89" r="24.3146" fill="#0B0E13"/>
<circle cx="116.31" cy="162.097" r="24.3146" fill="#0B0E13"/>
<defs>
<filter id="filter0_d_26_77" x="0" y="84.522" width="1057" height="41.5771" filterUnits="userSpaceOnUse" color-interpolation-filters="sRGB">
<feFlood flood-opacity="0" result="BackgroundImageFix"/>
<feColorMatrix in="SourceAlpha" type="matrix" values="0 0 0 0 0 0 0 0 0 0 0 0 0 0 0 0 0 0 127 0" result="hardAlpha"/>
<feOffset dy="4"/>
<feGaussianBlur stdDeviation="2"/>
<feComposite in2="hardAlpha" operator="out"/>
<feColorMatrix type="matrix" values="0 0 0 0 0 0 0 0 0 0 0 0 0 0 0 0 0 0 0.25 0"/>
<feBlend mode="normal" in2="BackgroundImageFix" result="effect1_dropShadow_26_77"/>
<feBlend mode="normal" in="SourceGraphic" in2="effect1_dropShadow_26_77" result="shape"/>
</filter>
</defs>
</svg>
